<?xml version="1.0" standalone="no"?>
<!DOCTYPE svg PUBLIC "-//W3C//DTD SVG 20010904//EN"
 "http://www.w3.org/TR/2001/REC-SVG-20010904/DTD/svg10.dtd">
<svg version="1.0" xmlns="http://www.w3.org/2000/svg"
 width="103.000000pt" height="34.000000pt" viewBox="0 0 103.000000 34.000000"
 preserveAspectRatio="xMidYMid meet">
<metadata>
Created by potrace 1.16, written by Peter Selinger 2001-2019
</metadata>
<g transform="translate(0.000000,34.000000) scale(0.100000,-0.100000)"
fill="#000000" stroke="none">
<path d="M70 165 c0 -108 1 -115 20 -115 18 0 20 7 21 58 l1 57 11 -42 c14
-61 42 -59 55 5 l10 47 1 -62 c1 -56 3 -63 21 -63 19 0 20 7 20 115 l0 115
-29 0 c-26 0 -30 -4 -36 -40 -4 -22 -10 -40 -15 -40 -5 0 -11 18 -15 40 -6 36
-10 40 -36 40 l-29 0 0 -115z"/>
<path d="M360 165 l0 -115 40 0 c63 0 80 24 80 113 0 95 -14 117 -76 117 l-44
0 0 -115z"/>
<path d="M570 259 c-15 -28 -7 -58 30 -104 31 -39 39 -65 19 -65 -6 0 -13 9
-16 20 -8 30 -43 26 -43 -4 0 -54 74 -78 104 -34 l16 22 0 -22 c0 -28 36 -30
43 -2 7 26 37 26 37 0 0 -15 7 -20 26 -20 19 0 24 4 21 18 -3 9 -13 61 -23
115 -16 88 -20 97 -40 97 -26 0 -28 -5 -45 -105 -11 -69 -14 -76 -23 -55 -5
14 -23 41 -38 61 -27 36 -39 77 -18 64 6 -3 10 -15 10 -26 0 -12 7 -19 20 -19
16 0 20 7 20 34 0 37 -12 46 -60 46 -19 0 -33 -7 -40 -21z"/>
<path d="M920 165 l0 -115 50 0 c43 0 50 3 50 20 0 15 -7 20 -25 20 -21 0 -25
5 -25 30 0 23 4 30 20 30 13 0 20 7 20 20 0 13 -7 20 -20 20 -16 0 -20 7 -20
30 0 25 4 30 25 30 16 0 25 6 25 15 0 11 -12 15 -50 15 l-50 0 0 -115z"/>
</g>
</svg>
